<?xml version="1.0" standalone="no"?>
<!DOCTYPE svg PUBLIC "-//W3C//DTD SVG 20010904//EN"
 "http://www.w3.org/TR/2001/REC-SVG-20010904/DTD/svg10.dtd">
<svg version="1.0" xmlns="http://www.w3.org/2000/svg"
 width="569.000000pt" height="569.000000pt" viewBox="0 0 569.000000 569.000000"
 preserveAspectRatio="xMidYMid meet">
<metadata>
Created by potrace 1.11, written by Peter Selinger 2001-2013
</metadata>
<g transform="translate(0.000000,569.000000) scale(0.100000,-0.100000)"
fill="#000000" stroke="none">
<path d="M0 2845 l0 -2845 2845 0 2845 0 0 2845 0 2845 -2845 0 -2845 0 0
-2845z m346 2691 c37 -11 81 -65 107 -128 19 -49 32 -66 59 -80 19 -10 56 -44
83 -75 27 -32 53 -59 57 -61 21 -9 88 -82 88 -95 0 -9 10 -27 23 -40 12 -14
32 -36 44 -49 13 -14 36 -28 53 -32 17 -3 33 -13 37 -22 3 -10 24 -33 45 -52
21 -19 38 -41 38 -48 0 -8 7 -14 15 -14 8 0 15 -4 15 -10 0 -5 7 -10 15 -10 8
0 33 -24 55 -52 23 -29 72 -78 110 -108 163 -130 261 -220 356 -324 55 -61
165 -173 243 -249 108 -104 146 -135 156 -127 26 22 163 84 267 121 149 53
298 86 463 100 130 12 151 11 305 -10 184 -26 350 -64 455 -106 105 -42 282
-132 288 -147 2 -8 85 67 199 180 136 135 199 191 210 187 16 -6 58 29 58 48
0 5 11 22 25 39 14 16 25 36 25 43 0 23 42 125 52 125 22 0 121 78 237 187
216 201 358 348 379 389 23 45 107 128 141 139 16 5 21 13 18 25 -4 14 9 28
47 53 28 19 93 73 145 121 52 47 104 89 116 92 40 10 78 0 97 -26 18 -24 19
-56 26 -470 7 -419 7 -3015 0 -3551 -2 -164 -7 -251 -14 -260 -21 -26 -24 -72
-29 -424 -2 -193 -7 -358 -10 -367 -4 -9 -22 -29 -41 -43 -31 -23 -39 -25 -66
-16 -17 6 -100 11 -186 11 -129 0 -153 2 -149 14 9 23 -84 28 -428 23 -321 -4
-397 -12 -467 -48 -32 -16 -50 -19 -82 -14 -23 4 -177 9 -344 11 l-302 5 -46
-32 c-45 -30 -49 -31 -108 -23 -33 5 -109 8 -168 9 -93 0 -105 2 -98 16 5 8
129 134 277 278 147 145 255 257 238 249 -52 -27 -224 -77 -344 -100 -95 -18
-151 -22 -311 -22 -212 0 -348 18 -499 67 l-74 25 271 -272 c150 -149 275
-275 280 -279 11 -14 -369 4 -397 18 -19 10 -38 9 -95 -2 -55 -11 -115 -13
-266 -7 -279 10 -1223 5 -1234 -7 -6 -5 -46 -9 -90 -9 -44 0 -105 -5 -135 -10
-109 -20 -355 -38 -369 -28 -9 8 -12 546 -12 2628 l0 2618 41 37 41 37 21 -20
c12 -11 31 -23 43 -26z"/>
<path d="M4816 4619 l-348 -351 25 -23 c13 -13 35 -45 47 -71 30 -60 32 -163
8 -404 -10 -96 -20 -251 -24 -345 -8 -212 -5 -575 5 -595 8 -16 15 -47 32
-140 13 -73 13 -326 0 -420 -14 -101 -34 -190 -41 -185 -12 7 11 -193 31 -270
12 -44 23 -91 25 -105 3 -14 7 -34 11 -44 10 -35 3 -148 -13 -205 -9 -31 -28
-68 -42 -83 l-26 -28 332 -332 332 -333 0 2143 c0 1178 -1 2142 -3 2142 -2 0
-160 -158 -351 -351z"/>
<path d="M530 2802 c0 -1162 1 -2112 3 -2112 6 0 731 730 739 744 6 10 3 25
-8 41 -9 14 -14 25 -11 25 8 0 -23 74 -67 160 -42 84 -58 166 -56 293 1 79 -5
130 -26 227 -25 113 -28 144 -28 320 0 159 4 217 22 315 21 116 55 238 74 261
10 13 15 576 9 884 -4 183 -3 199 18 258 l23 64 -108 108 c-105 106 -146 132
-167 111 -14 -14 -87 -14 -87 -1 0 6 -6 10 -12 9 -27 -5 -138 55 -138 74 0 4
-11 19 -24 32 -28 28 -74 119 -105 210 -12 32 -28 66 -36 74 -13 14 -15 -219
-15 -2097z"/>
<path d="M1267 4160 c-23 -33 -36 -83 -38 -150 -3 -110 14 -520 23 -520 4 0 8
-9 8 -21 0 -18 4 -20 29 -14 28 6 30 4 33 -27 l3 -33 63 84 c35 46 66 97 69
112 7 35 23 49 23 19 0 -16 11 -8 53 38 41 46 136 136 156 149 7 5 -201 223
-213 223 -7 0 -38 29 -70 65 -45 51 -63 65 -86 65 -19 0 -30 6 -32 18 -3 14
-6 13 -21 -8z"/>
<path d="M4413 4142 c-4 -16 -13 -22 -32 -22 -33 0 -104 -58 -128 -104 -14
-25 -18 -27 -21 -13 -2 10 -7 17 -12 15 -4 -2 -63 -60 -130 -131 l-121 -127
65 -57 c36 -32 93 -92 128 -134 34 -43 65 -73 69 -68 5 8 31 -31 78 -118 7
-14 22 -28 32 -30 11 -3 19 -14 19 -25 0 -10 5 -16 10 -13 6 3 10 -4 11 -17 0
-16 4 -11 13 17 11 38 12 39 19 15 4 -14 7 -43 8 -65 l1 -40 9 30 c6 17 14
125 20 240 5 116 13 237 19 270 40 241 34 322 -29 379 -22 20 -22 20 -28 -2z"/>
<path d="M4431 1736 c-7 -16 -9 -38 -6 -50 4 -14 3 -17 -3 -8 -7 10 -14 5 -31
-23 -25 -43 -26 -49 -6 -65 9 -8 13 -21 9 -33 -3 -10 -2 -29 4 -41 6 -11 13
-29 16 -39 8 -25 44 -18 67 13 41 55 41 188 1 255 -11 18 -12 17 -6 -7 3 -16
4 -28 0 -28 -3 0 -12 12 -20 28 l-14 27 -11 -29z"/>
</g>
</svg>
